<svg width="376" height="376" viewBox="0 0 376 376" fill="none" xmlns="http://www.w3.org/2000/svg">
<rect x="8" y="8" width="360" height="360" stroke="black" stroke-width="16"/>
<path d="M161.969 80.9531H240.367V85.2891C236.227 85.2891 232.828 85.7188 230.172 86.5781C227.516 87.4375 225.406 88.6094 223.844 90.0938C222.281 91.5781 221.188 93.2578 220.562 95.1328C220.016 97.0078 219.742 99 219.742 101.109V181.852C219.742 195.914 218.727 208.648 216.695 220.055C214.664 231.383 212.008 241.539 208.727 250.523C205.445 259.586 201.695 267.555 197.477 274.43C193.258 281.383 188.961 287.359 184.586 292.359C174.273 304.156 162.555 312.906 149.43 318.609L147.32 314.742C153.883 308.492 159.742 300.406 164.898 290.484C167.086 286.266 169.234 281.461 171.344 276.07C173.453 270.68 175.328 264.625 176.969 257.906C178.688 251.266 180.055 243.961 181.07 235.992C182.086 227.945 182.594 219.234 182.594 209.859V100.641C182.594 99.0781 182.281 97.3984 181.656 95.6016C181.109 93.8047 180.055 92.1641 178.492 90.6797C177.008 89.1172 174.938 87.8281 172.281 86.8125C169.625 85.7969 166.188 85.2891 161.969 85.2891V80.9531Z" fill="black"/>
</svg>
